<svg xmlns="http://www.w3.org/2000/svg" xmlns:xlink="http://www.w3.org/1999/xlink" version="1.1" width="256" height="256" viewBox="0 0 256 256" xml:space="preserve">

<defs>
</defs>
<g style="stroke: none; stroke-width: 0; stroke-dasharray: none; stroke-linecap: butt; stroke-linejoin: miter; stroke-miterlimit: 10; fill: none; fill-rule: nonzero; opacity: 1;" transform="translate(1.4065934065934016 1.4065934065934016) scale(2.81 2.81)" >
	<path d="M 57.523 34.459 c -0.664 0 -1.333 -0.038 -1.988 -0.114 c -1.098 -0.126 -1.885 -1.118 -1.759 -2.215 c 0.127 -1.098 1.137 -1.88 2.216 -1.758 c 0.505 0.058 1.02 0.087 1.531 0.087 c 7.295 0 13.23 -5.935 13.23 -13.229 S 64.818 4 57.523 4 c -4.335 0 -8.402 2.136 -10.879 5.713 c -0.374 0.54 -0.988 0.861 -1.645 0.861 s -1.271 -0.322 -1.644 -0.861 C 40.878 6.136 36.812 4 32.476 4 c -7.295 0 -13.229 5.935 -13.229 13.23 s 5.935 13.229 13.229 13.229 c 0.512 0 1.027 -0.029 1.532 -0.087 c 1.101 -0.125 2.089 0.661 2.215 1.758 c 0.126 1.097 -0.661 2.089 -1.758 2.215 c -0.656 0.076 -1.325 0.114 -1.989 0.114 c -9.5 0 -17.229 -7.729 -17.229 -17.229 S 22.976 0 32.476 0 C 37.247 0 41.768 1.984 45 5.407 C 48.232 1.984 52.753 0 57.523 0 c 9.501 0 17.23 7.729 17.23 17.23 S 67.024 34.459 57.523 34.459 z" style="stroke: none; stroke-width: 1; stroke-dasharray: none; stroke-linecap: butt; stroke-linejoin: miter; stroke-miterlimit: 10; fill: #646cff; fill-rule: nonzero; opacity: 1;" transform=" matrix(1 0 0 1 0 0) " stroke-linecap="round" />
	<path d="M 55.764 68.014 H 34.236 c -1.104 0 -2 -0.896 -2 -2 V 25.262 c 0 -1.104 0.896 -2 2 -2 s 2 0.896 2 2 v 38.751 h 17.527 V 25.262 c 0 -1.104 0.896 -2 2 -2 s 2 0.896 2 2 v 40.751 C 57.764 67.118 56.868 68.014 55.764 68.014 z" style="stroke: none; stroke-width: 1; stroke-dasharray: none; stroke-linecap: butt; stroke-linejoin: miter; stroke-miterlimit: 10; fill: #646cff; fill-rule: nonzero; opacity: 1;" transform=" matrix(1 0 0 1 0 0) " stroke-linecap="round" />
	<path d="M 45 90 c -9.753 0 -17.688 -7.935 -17.688 -17.688 v -0.836 c 0 -4.115 3.348 -7.463 7.462 -7.463 h 20.451 c 4.114 0 7.462 3.348 7.462 7.463 v 0.836 C 62.688 82.065 54.753 90 45 90 z M 34.774 68.014 c -1.909 0 -3.462 1.554 -3.462 3.463 v 0.836 C 31.312 79.859 37.453 86 45 86 c 7.547 0 13.688 -6.141 13.688 -13.688 v -0.836 c 0 -1.909 -1.553 -3.463 -3.462 -3.463 H 34.774 z" style="stroke: none; stroke-width: 1; stroke-dasharray: none; stroke-linecap: butt; stroke-linejoin: miter; stroke-miterlimit: 10; fill: #646cff; fill-rule: nonzero; opacity: 1;" transform=" matrix(1 0 0 1 0 0) " stroke-linecap="round" />
	<path d="M 45 90 c -1.104 0 -2 -0.896 -2 -2 v -7.354 c 0 -1.104 0.896 -2 2 -2 s 2 0.896 2 2 V 88 C 47 89.104 46.104 90 45 90 z" style="stroke: none; stroke-width: 1; stroke-dasharray: none; stroke-linecap: butt; stroke-linejoin: miter; stroke-miterlimit: 10; fill: #646cff; fill-rule: nonzero; opacity: 1;" transform=" matrix(1 0 0 1 0 0) " stroke-linecap="round" />
</g>
</svg>