<?xml version="1.0" standalone="no"?>
<!DOCTYPE svg PUBLIC "-//W3C//DTD SVG 20010904//EN"
 "http://www.w3.org/TR/2001/REC-SVG-20010904/DTD/svg10.dtd">
<svg version="1.0" xmlns="http://www.w3.org/2000/svg"
 width="1280.000000pt" height="1192.000000pt" viewBox="0 0 1280.000000 1192.000000"
 preserveAspectRatio="xMidYMid meet">
<metadata>
Created by potrace 1.15, written by Peter Selinger 2001-2017
</metadata>
<g transform="translate(0.000000,1192.000000) scale(0.100000,-0.100000)"
fill="#000000" stroke="none">
<path d="M2317 11910 c-514 -50 -1043 -242 -1487 -540 -324 -218 -513 -424
-660 -718 -249 -499 -221 -1025 75 -1397 28 -34 300 -321 605 -636 575 -594
1099 -1140 2025 -2109 1778 -1860 2606 -2713 3644 -3750 1015 -1015 2063
-2028 2285 -2209 255 -209 605 -379 951 -465 253 -62 414 -80 705 -80 301 1
487 25 769 99 621 165 1072 530 1346 1090 305 621 299 1314 -15 1913 -188 358
-426 624 -998 1115 -336 290 -708 621 -1817 1622 -1712 1545 -2420 2167 -3325
2921 -315 262 -951 776 -1115 900 -256 194 -548 313 -898 365 -239 35 -591 24
-822 -27 -587 -130 -1046 -440 -1317 -891 -115 -190 -160 -344 -161 -543 -2
-355 154 -689 508 -1089 50 -56 284 -287 520 -513 237 -226 1220 -1202 2185
-2169 l1755 -1759 109 109 110 110 -197 203 c-434 450 -3178 3190 -3542 3538
-484 463 -721 701 -805 808 -151 194 -246 363 -296 527 -23 77 -27 109 -28
220 -1 152 11 201 82 339 217 424 698 736 1266 822 451 67 925 -23 1251 -239
122 -80 661 -512 1225 -981 835 -694 1625 -1389 3295 -2896 1110 -1002 1457
-1312 1780 -1589 624 -535 858 -808 1020 -1187 103 -240 141 -452 132 -737 -9
-295 -68 -530 -199 -785 -204 -397 -542 -693 -956 -837 -286 -99 -559 -144
-870 -145 -555 0 -1062 165 -1444 472 -73 59 -572 529 -1042 981 -452 437
-2103 2090 -2687 2692 -579 597 -1218 1262 -2019 2100 -903 944 -1893 1975
-2325 2420 -224 231 -427 447 -452 480 -59 79 -108 176 -135 272 -20 67 -23
101 -23 243 1 185 16 266 82 429 135 336 370 579 788 814 447 251 898 377
1349 377 290 0 491 -38 722 -136 178 -75 214 -99 574 -378 1046 -810 2075
-1678 3985 -3361 1103 -971 1609 -1415 2090 -1829 l449 -388 26 30 c14 16 60
70 102 120 l78 90 -393 338 c-439 379 -1082 940 -1652 1444 -2332 2059 -3360
2929 -4533 3839 -283 219 -356 268 -517 346 -192 93 -349 142 -585 180 -112
19 -447 27 -573 15z"/>
</g>
</svg>
